<svg width="92" height="92" viewBox="0 0 92 92" fill="none" xmlns="http://www.w3.org/2000/svg">
<path d="M73.1411 60.2611C70.8795 46.7295 57.8845 35.7278 44.1611 35.7278C29.2494 35.7278 16.1394 47.8028 14.8744 62.6761C14.3761 68.4261 16.2161 73.8695 20.0111 77.9711C23.7677 82.0728 29.0577 84.3345 34.8077 84.3345H52.7478C59.2261 84.3345 64.8995 81.8045 68.7711 77.2428C72.6428 72.6811 74.1761 66.6245 73.1411 60.2611Z" fill="#fff"/>
<path d="M39.4051 30.13C45.6082 30.13 50.6368 25.1014 50.6368 18.8983C50.6368 12.6953 45.6082 7.66666 39.4051 7.66666C33.2021 7.66666 28.1735 12.6953 28.1735 18.8983C28.1735 25.1014 33.2021 30.13 39.4051 30.13Z" fill="#fff"/>
<path d="M64.9367 34.609C70.1025 34.609 74.29 30.4214 74.29 25.2557C74.29 20.09 70.1025 15.9023 64.9367 15.9023C59.7709 15.9023 55.5833 20.09 55.5833 25.2557C55.5833 30.4214 59.7709 34.609 64.9367 34.609Z" fill="#fff"/>
<path d="M78.7735 49.57C82.902 49.57 86.2485 46.2231 86.2485 42.0946C86.2485 37.9664 82.902 34.6198 78.7735 34.6198C74.6453 34.6198 71.2985 37.9664 71.2985 42.0946C71.2985 46.2231 74.6453 49.57 78.7735 49.57Z" fill="#fff"/>
<path d="M15.1033 42.0961C20.269 42.0961 24.4567 37.9084 24.4567 32.7426C24.4567 27.577 20.269 23.3893 15.1033 23.3893C9.93765 23.3893 5.75 27.577 5.75 32.7426C5.75 37.9084 9.93765 42.0961 15.1033 42.0961Z" fill="#fff"/>
</svg>
