<svg width="13" height="15" viewBox="0 0 13 15" fill="none" xmlns="http://www.w3.org/2000/svg">
<path d="M9.2839 6.81866V4.0592H9.91815V1.20507H6.79815V0H3.20728V1.20507H0.0872803V4.0592H0.72153V13.7315H5.84382C6.59154 14.5127 7.64401 15 8.80821 15C11.0715 15 12.9128 13.1587 12.9128 10.8955C12.9128 8.79311 11.3239 7.0552 9.2839 6.81866ZM8.33252 6.81866C7.76005 6.88503 7.22316 7.06953 6.7469 7.34727V4.0592H8.33252V6.81866ZM4.15865 0.951374H5.84677V1.20507H4.15865V0.951374ZM1.03865 2.15645H8.96677V3.10782H1.03865V2.15645ZM1.6729 4.0592H3.25853V12.7801H1.6729V4.0592ZM4.2099 12.7801V4.0592H5.79553V8.11104C5.11827 8.84325 4.7037 9.8218 4.7037 10.8955C4.7037 11.5745 4.86958 12.2154 5.16273 12.7801H4.2099ZM8.80821 14.0486C7.06954 14.0486 5.65507 12.6341 5.65507 10.8955C5.65507 9.15679 7.06957 7.74231 8.80821 7.74231C10.5468 7.74231 11.9614 9.15682 11.9614 10.8955C11.9614 12.6341 10.5469 14.0486 8.80821 14.0486Z" fill="#FF6F69"/>
<path d="M9.85357 9.17725L8.80823 10.2226L7.76293 9.17725L7.09021 9.84996L8.13555 10.8953L7.09021 11.9406L7.76293 12.6133L8.80823 11.568L9.85357 12.6133L10.5263 11.9406L9.48095 10.8953L10.5263 9.84996L9.85357 9.17725Z" fill="#FF6F69"/>
</svg>
