<svg width="13" height="13" viewBox="0 0 13 13" fill="none" xmlns="http://www.w3.org/2000/svg">
<path d="M8.31401 4.04063L2.19416 10.1631C2.0165 10.3408 2.0165 10.6298 2.19416 10.8075C2.28166 10.895 2.39833 10.94 2.515 10.94C2.63167 10.94 2.74834 10.895 2.83584 10.8075L8.95569 4.68761C9.13335 4.50996 9.13335 4.22094 8.95569 4.04328C8.78069 3.86297 8.49167 3.86297 8.31401 4.04063Z" fill="#047FFF"/>
<path d="M11.4323 5.08818C11.5489 5.08818 11.6656 5.0431 11.7531 4.9556L12.4213 4.2874C13.1929 3.51579 13.1929 2.26159 12.4213 1.49263L11.5092 0.580487C11.1353 0.206613 10.6395 0.00244141 10.1118 0.00244141C9.58412 0.00244141 9.08828 0.209265 8.71441 0.580487L8.04621 1.24869C7.86855 1.42634 7.86855 1.71536 8.04621 1.89302L11.1114 4.95825C11.1989 5.0431 11.3156 5.08818 11.4323 5.08818ZM9.35874 1.21952C9.56026 1.018 9.82807 0.906631 10.1144 0.906631C10.3982 0.906631 10.6686 1.018 10.8701 1.21952L11.7823 2.13166C12.1986 2.54796 12.1986 3.22412 11.7823 3.64041L11.4323 3.99042L9.00873 1.56688L9.35874 1.21952Z" fill="#047FFF"/>
<path d="M4.31806 12.388L10.7747 5.93144C10.9523 5.75378 10.9523 5.46476 10.7747 5.2871C10.597 5.10945 10.308 5.10945 10.1303 5.2871L3.78509 11.6376L0.985021 12.0142L1.36155 9.2141L7.42307 3.15258C7.60072 2.97492 7.60072 2.6859 7.42307 2.50824C7.24541 2.33059 6.95639 2.33059 6.77873 2.50824L0.611148 8.68113C0.539555 8.75272 0.494478 8.84288 0.48122 8.94098L0.00393499 12.4835C-0.0146261 12.624 0.0331024 12.7646 0.133863 12.8653C0.218713 12.9502 0.335383 12.9979 0.454704 12.9979C0.475917 12.9979 0.494478 12.9953 0.515691 12.9926L4.05821 12.5153C4.15631 12.5047 4.24912 12.4596 4.31806 12.388Z" fill="#047FFF"/>
</svg>
